<svg width="94" height="125" viewBox="0 0 94 125" fill="none" xmlns="http://www.w3.org/2000/svg">
<path d="M46.009 0.27625L14.5877 9.02375V11.0687C14.5877 22.0438 7.9441 17.275 1.98196 19.4575L0.00250072 20.1838L0 22.0438V67.92C0 83.7687 7.92035 98.5875 22.902 110.772C34.1035 119.884 45.195 124.29 45.6626 124.474L47.0006 125L48.3386 124.475C48.805 124.293 59.8953 119.885 71.0993 110.774C86.0809 98.5888 94 83.7688 94 67.9212V20.1863L92.018 19.4587C86.0547 17.275 79.4123 22.0438 79.4123 11.07V9.02375L47.0006 0L46.009 0.27625Z" fill="black"/>
</svg>
